<?xml version="1.0" ?><!DOCTYPE svg  PUBLIC '-//W3C//DTD SVG 1.1//EN'  'http://www.w3.org/Graphics/SVG/1.1/DTD/svg11.dtd'><svg enable-background="new 0 0 64 64" id="Layer_1" version="1.1" viewBox="0 0 64 64" xml:space="preserve" xmlns="http://www.w3.org/2000/svg" xmlns:xlink="http://www.w3.org/1999/xlink"><g><path d="M30.3,48.9c-2.1,2.1-4.9,3.2-7.7,3.2c-2.7,0-5.5-1-7.6-3.1c-4.2-4.2-4.1-11.1,0.1-15.3   c2.3-2.3,5.3-3.4,8.4-3.2l-1.7-1.7c-3,0.3-5.8,1.5-7.9,3.7c-2.4,2.4-3.7,5.5-3.7,8.9c0,3.3,1.3,6.5,3.6,8.8   c2.3,2.3,5.4,3.6,8.7,3.6c0,0,0.1,0,0.1,0c3.4,0,6.5-1.4,8.9-3.7c2.1-2.1,3.4-4.9,3.7-7.9l-1.7-1.7C33.6,43.6,32.5,46.7,30.3,48.9z   " fill="#EA7878"/><path d="M45.8,10.1c-2.2,0-4.2,0.8-5.7,2.4c-1.8,1.8-2.6,4.3-2.3,6.8c0,0.3-0.1,0.6-0.3,0.8l-3.2,3.2l3.1,3.1   l3.3,3.3l3.2-3.2c0.2-0.2,0.5-0.3,0.8-0.3c2.5,0.3,5-0.5,6.8-2.3c3.2-3.2,3.2-8.3,0-11.5C50,11,47.9,10.1,45.8,10.1z M50.7,15   c-0.2,0.2-0.5,0.3-0.7,0.3c-0.3,0-0.5-0.1-0.7-0.3c-1.8-1.8-4.8-1.8-6.6,0c-0.4,0.4-1,0.4-1.4,0c-0.4-0.4-0.4-1,0-1.4   c1.3-1.3,2.9-1.9,4.7-1.9c1.8,0,3.4,0.7,4.7,1.9C51.1,14,51.1,14.6,50.7,15z" fill="#FCE2B2"/><polygon fill="#FCE2B2" points="39.8,44 39.8,44 39.8,45  "/><polygon fill="#ACE2E5" points="26.6,24.4 23.5,21.2 20.2,24.5 39.8,44 43,40.8 39.9,37.6  "/><polygon fill="#EDA86B" points="28.1,23 41.3,36.2 41.3,36.2 42.7,34.7 29.5,21.5  "/><path d="M45.8,8.1c-2.7,0-5.2,1.1-7.2,3c-2.1,2.1-3.2,5-2.9,8l-2.9,2.9l-1.8-1.8c-0.8-0.8-2.1-0.8-2.8,0l-1.5,1.5   l-1.7-1.7c-0.8-0.8-2.1-0.8-2.8,0l-3.3,3.3c-0.8,0.8-0.8,2,0,2.8l1.2,1.2c-2.8,0.6-5.5,1.9-7.6,4c-2.8,2.8-4.3,6.4-4.3,10.3   c0,3.9,1.5,7.5,4.2,10.3c2.7,2.7,6.3,4.2,10.2,4.2c0,0,0.1,0,0.1,0c3.9,0,7.5-1.6,10.3-4.3c2.1-2.1,3.5-4.7,4-7.6l1.4,1.4   c0.4,0.4,0.9,0.6,1.4,0.6c0.5,0,1-0.2,1.4-0.6l3.3-3.3c0.8-0.8,0.8-2,0-2.8l-1.7-1.7c0,0,0,0,0,0l1.5-1.5c0.8-0.8,0.8-2,0-2.8   l-2.1-2.1l2.9-2.9c0.3,0,0.5,0,0.8,0h0c2.7,0,5.2-1.1,7.2-3c3.9-3.9,3.9-10.4,0-14.3C51,9.2,48.5,8.1,45.8,8.1z M31.5,50.1   c-2.4,2.4-5.5,3.7-8.9,3.7c0,0-0.1,0-0.1,0c-3.3,0-6.4-1.3-8.7-3.6c-2.3-2.3-3.6-5.5-3.6-8.8c0-3.3,1.4-6.5,3.7-8.9   c2.1-2.1,4.9-3.4,7.9-3.7l1.7,1.7c-3.1-0.2-6.1,0.9-8.4,3.2C10.8,38,10.8,44.9,15,49c2.1,2.1,4.8,3.1,7.6,3.1   c2.8,0,5.6-1.1,7.7-3.2c2.3-2.3,3.4-5.3,3.2-8.4l1.7,1.7C34.9,45.2,33.6,48,31.5,50.1z M26.1,33.2l4.8,4.8c1.3,3.3,0.6,7-2,9.6   c-3.5,3.5-9.1,3.5-12.5,0.1c-3.4-3.4-3.4-9,0.1-12.5C19,32.6,22.8,31.8,26.1,33.2z M43,40.8L39.8,44c0,0,0,0,0,0l0,1v-1L20.2,24.5   l3.3-3.3l3.2,3.2l13.2,13.2L43,40.8z M42.7,34.7l-1.5,1.5c0,0,0,0,0,0L28.1,23l1.5-1.5L42.7,34.7z M51.5,24   c-1.8,1.8-4.3,2.6-6.8,2.3c-0.3,0-0.6,0.1-0.8,0.3l-3.2,3.2l-3.3-3.3l-3.1-3.1l3.2-3.2c0.2-0.2,0.3-0.5,0.3-0.8   c-0.3-2.5,0.5-5,2.3-6.8c1.5-1.5,3.6-2.4,5.7-2.4c2.2,0,4.2,0.8,5.7,2.4C54.7,15.7,54.7,20.8,51.5,24z" fill="#281812"/><path d="M46,11.6c-1.8,0-3.4,0.7-4.7,1.9c-0.4,0.4-0.4,1,0,1.4c0.4,0.4,1,0.4,1.4,0c1.8-1.8,4.8-1.8,6.6,0   c0.2,0.2,0.5,0.3,0.7,0.3c0.3,0,0.5-0.1,0.7-0.3c0.4-0.4,0.4-1,0-1.4C49.4,12.3,47.7,11.6,46,11.6z" fill="#1E0E10"/></g></svg>